<?xml version="1.0" encoding="UTF-8"?><svg id="_x31_" xmlns="http://www.w3.org/2000/svg" viewBox="0 0 7220.18 2120.56" style="background-color:white"><defs><style>.cls-1{fill:#96cdf8;}.cls-2{fill:#020202;}.cls-3{fill:#ecffff;}.cls-4{fill:#aad6f9;}.cls-5{fill:#005dde;}.cls-6{fill:#00cbff;}.cls-7{fill:#01002a;}</style></defs><path class="cls-6" d="M744.26,216.01l63.9,41.31c-101.07,11.26-199.56,33.29-293.78,73.06,82.93,2.2,165.2,5.62,233.6,34.73-127.15.19-241.81,37.78-344.73,110.47l169.45,10.91,3.23,19.53c-110.26,25.49-200.05,88.6-284.27,161.97,40.46-4.93,79.4-9.32,117.49-13.41-123.92,102.94-181.23,220.44-206.97,344.83l91.26-90.94c-44.98,81.59-66.03,162.67-78.69,243.56l59.13-100.21c-54.69,301.63,34.93,395.25,120.24,495.06l-35.09-178.41c71.08,165.67,192.59,274.5,314.87,382.78l-60.17-137.67,312.27,335.26,216.74-234.7.5,74.59,167.34-242.64-9.44,72.34c60.45-55.7,116.79-119.73,150.68-229.4l43.63,14.75-27.41,52.73c68.27-23.84,129.58-58.8,167.33-131.36,77.54-12.76,131.46-44.2,155.53-104.87,18.67-47.06,11.44-88.13-7.53-153.52,24.58-73.74,25.84-149.9-35.56-232.59-12.02,55.48-35.84,105.32-71.04,149.71-67.43-58.64-134.45-117.67-215.92-163.26,8.39-46.21,16.83-92.42-31.81-135.92,52.17-88.72,38.69-161.18-9.27-225.1-27.47-36.61-60.03-76.06-102.69-111.08-58.82-48.28-133.16-90.09-206.52-122.16l37.57,92.35c-118.66-73.51-256.54-99.76-403.9-102.67Z"/><path class="cls-4" d="M1255.59,1193.34s20.9-43.65,16.2-43.65-32.83-17.93-32.83-17.93l-102.34-28.93-67.74-112.23c-15.03-28.13-1.33-43.6,17.64-74.03l-17.64,21.14-27.5,105.99,40.2,116.04,54.55,27.15,119.47,6.47Z"/><path class="cls-3" d="M1228.05,1115.19l-141.53-198.63c-8.66,25.66-13.46,49.96-17.64,74.03,0,0,13.62,206.29,167.61,149.06l4.93-15.79-13.37-8.67Z"/><polygon class="cls-5" points="1379.75 1471.83 1386.49 1380.57 1220.13 1309.8 1143.49 1243.66 941.51 1090.23 908.84 824.65 835.54 807.5 727.49 960.06 672.95 1064.99 691.23 1173.13 784.74 1510.67 794.23 1701.91 691.39 1651.73 570.76 1507.84 485.93 1337.88 513.77 1107.74 652.18 799.97 691.23 738.8 622.84 548.18 598.71 481.18 566.83 428.04 623.07 399.76 804.42 378.02 792.56 406.49 824.29 421.11 900.94 458.11 981.62 517.56 1049.97 566.85 1067.17 530.28 983.92 410.02 860.81 384.52 789.65 359.16 649.48 383.11 550.36 411.7 569.35 453.57 604.62 516.27 409.82 600.28 436.73 654.05 290.97 815.01 346.66 888.16 300.34 1029.45 310.79 1269.61 352.16 1339.16 374 1379.32 465.49 1502.06 584.8 1573.28 819.48 1756.42 984.38 1777.16 1073.4 1704.88 1226.24 1625.17 1295.9 1519.8 1379.75 1471.83"/><path class="cls-3" d="M1607.28,1028.53s-17.58-6.85-52.13,6.66l25.16-21.99-85.35-64.75s-24.92-16.13-71.88-1.98l50.52-17.72-140.16-125.94,42.48,21.36s6.03-54.16-12.41-79.31c-18.43-25.15-43.2-35.56-67.35-35.02-24.15.53-24.37-24.72-24.37-24.72l72.28-33.27,99.21,83.62-13.58,78.96,145.69,117.3,52.01,54.43,20.78,31.67-40.9,10.71Z"/><path class="cls-3" d="M1252.55,777.14s-124.28-180.84-309.12-102.74l58.58-46.39,157.9-13.37,62.37,63.9,30.27,98.61Z"/><path class="cls-3" d="M1485.53,1221.32s161.87-221.03,272.42-69.38l-3.47-22.62,5.84-104.88-13.5-125.43-28.12,65.55-45.76,52.46-127.99,73.11-66.01,83.57,6.6,47.61Z"/><path class="cls-3" d="M1224.59,351.59l135.83,238.54s2.69-57.18-.86-67.53c0,0,23.98,27.87,37.31,30.85,13.33,2.97-18.45-63.56-18.45-63.56l-70.48-114.26-83.36-24.04Z"/><path class="cls-3" d="M749.11,299.47s297.99-24.2,525.55,245.92l37.71,15.76-50.52-144.13-198.84-117.87-197.67-47.32-116.23,47.65Z"/><path class="cls-3" d="M598.71,429.32c1.65-7.44,284.61-14.84,387.24,157.79l24.18-79.39-46.29-1.52-34.72-31.11-64.63-38.96-97.32-36.38-156.15,18.96-12.31,10.6Z"/><path class="cls-3" d="M635.36,478.37s20.35,72.52,53.75,94.43l-1.01-13.52s43.28,32.41,76.62,31.56l-20.27-95-74.56-19.79-34.53,2.32Z"/><polygon class="cls-3" points="988.76 755.1 1048.59 770.34 1132.58 847.45 1026.73 874.51 998.09 805.07 988.76 755.1"/><path class="cls-1" d="M436.43,605.52s129.87-31.54,182.3-7.79c52.43,23.76-14.11-81.46-14.11-81.46l-38.66,5.59-109.69,59.16-19.84,24.5Z"/><path class="cls-1" d="M533.19,612.66s-125.99,112.92-150.1,144.15l42.73,7.04-114.53,74.29-.49-47.29,125.94-136.8,68.65-36.37,27.8-5.02Z"/><path class="cls-1" d="M576.89,771.81s-114.81,92.03-165.91,221.11l17.19-13.9s-62.58,109.01-67.51,182.36l22.58-38.8s-47.86,103.75-36.02,174.82c11.83,71.07-29.52,11.98-29.52,11.98l-6.9-158.33v-101.22l100.99-169.75,165.11-108.27Z"/><path class="cls-1" d="M878.53,855.25s-131.39,102.74-133.82,185.99c-2.44,83.25-32.97,68.83-32.97,68.83l-20.51-68.83,36.26-81.18,82.66-99.54,68.38-5.27Z"/><path class="cls-1" d="M835.33,1029.2s-105.69,223.35-36.83,329.08c68.85,105.73,40.27,98.87,40.27,98.87,0,0-100.8,22.65-102.09,2.06-1.3-20.59-11.83-182.64-11.83-182.64l38.74-165.56,71.75-81.82Z"/><path class="cls-1" d="M738.41,808.27s-323.33,390.15-65.36,765.01l-96.17-43.33-82.54-297.61,38.84-249.2,158.04-183.16,47.19,8.29Z"/><path class="cls-5" d="M1250.01,539.91c9.03,38.31-12.26,59.26-12.26,59.26l4.76,15.46,17.18,32.04s20.77-14.76,18.65-41.23c-2.12-26.48-28.32-65.53-28.32-65.53ZM672.95,605.52c0,.09.03.2.06.32l-.06-.32ZM673.01,605.84l13.32,67.42,101.26,34.84,76.4-37.58c-79.78,10.56-188.03-57.34-190.98-64.67ZM1375.02,936.18s-76.17,25.85-86.18,121.64c-2.42,23.16-3.82,34.74-4.65,40.32l19.01-15.71s9.09-113.71,71.83-146.24ZM1284.19,1098.13l-1.1.91s-.34,8.8,1.1-.91ZM1441.45,1057.61l-15.63,12.65-5.3,12.16-9.07,54.2,25.32,2.65,42.35-74.89c-11.87.63-47.14,32.27-47.14,32.27-4.47-14.09,9.46-39.04,9.46-39.04ZM1308.63,1199.71l-76.05,31.81,22.78,18.99,58.91.27c98.89,81.77,301.79,47.58,301.79,47.58l34.26-21.72c-165.96,25.35-153.43-69.62-153.43-69.62l-11.35,14.3-176.9-21.61Z"/><path class="cls-1" d="M878.53,1154.9s49.33,107.97,110.73,131.32c61.4,23.35-11.86,46.21-11.86,46.21l-82.63-48.34-25.54-97.46,9.3-31.73Z"/><path class="cls-1" d="M1217.27,1453.11s-202.21,45.29-227.86,219.53c-25.65,174.24,55.31-14.73,55.31-14.73l105.09-147.08,67.47-57.71Z"/><path class="cls-1" d="M1143.49,1648.27s106.62-162.76,213.72-195.16c107.11-32.4,5.16,30.13,5.16,30.13l-99.2,54.55-119.68,110.48Z"/><path class="cls-3" d="M1060.67,673.96s42.99,18.02,60.97,34.65c17.98,16.63.76-11.29.76-11.29,0,0-31.2-24.1-61.73-23.36Z"/><path class="cls-2" d="M1699.29,1239.56s-16.52-3.85-23.34-13.85c-6.82-10,2.72-23.65,2.72-23.65l20.62,37.51Z"/><path class="cls-2" d="M1615.09,1131.89c1.7-1.34,7.12,14.9.41,39.75-5.7,21.1-15.98,32.59-53.01,76.45l.4-8.78,52.2-107.42Z"/><path class="cls-7" d="M744.26,216.01l63.91,41.31c-101.07,11.26-199.56,33.29-293.78,73.06,82.93,2.2,165.2,5.62,233.6,34.73-127.15.19-241.81,37.78-344.73,110.47l169.46,10.91,3.23,19.53c-110.26,25.49-200.05,88.6-284.27,161.97,40.46-4.93,79.4-9.32,117.49-13.41-123.92,102.94-181.23,220.44-206.97,344.83l91.26-90.94c-44.98,81.59-66.03,162.67-78.69,243.56l59.13-100.21c-54.69,301.63,34.93,395.25,120.24,495.06l-35.09-178.41c71.08,165.67,192.59,274.5,314.86,382.78l-60.17-137.67,312.27,335.26,216.74-234.7.5,74.59,167.34-242.64-9.44,72.34c60.45-55.7,116.79-119.73,150.68-229.4l43.63,14.75-27.41,52.73c68.27-23.84,129.58-58.8,167.33-131.36,77.54-12.76,131.46-44.2,155.53-104.87,18.67-47.06,11.44-88.13-7.53-153.52,24.58-73.74,25.84-149.9-35.56-232.59-12.02,55.48-35.84,105.32-71.04,149.71-67.43-58.64-134.45-117.67-215.92-163.26,8.39-46.21,16.83-92.42-31.81-135.92,52.17-88.72,38.69-161.18-9.27-225.1-27.47-36.61-60.03-76.06-102.69-111.08-58.82-48.28-133.16-90.09-206.52-122.16l37.57,92.35c-118.66-73.51-256.54-99.76-403.9-102.67ZM849.88,292.23c219.47-.87,329.3,100.66,329.3,100.66,0,0,46.77,29.93,80.24,63.36,33.46,33.43,4.52,164.67,4.52,164.67-18.03-48.29-38.69-95.71-78.51-136.76l-9.67,22.49c-98.31-125.3-251.46-191.66-426.65-207.19,35.83-4.9,69.42-7.11,100.77-7.24ZM1224.59,351.59c161.2,76.41,165.07,219.59,165.07,219.59,0,0-1.95,49.73-3.03,55.29-1.09,5.56-26.62,10.8-26.62,10.8,16.32-172.88-135.42-285.68-135.42-285.68ZM798.89,405.85c166.27,2.29,229.45,92.97,244.35,137.48-22.02-25.9-46.55-49.61-72.8-71.8l-7.79,23.7c-41.77-40-94.8-71.02-163.75-89.37ZM717.06,413.52c126.34-1.34,201.9,54.21,239.85,107.5,32.93,46.24,32.23,92.26,32.23,92.26l-28.34-44.25c6.09,31.13-8.04,52.91-28.96,71.55-17.48-221.65-333.13-211.26-333.13-211.26,43.62-10.59,82.98-15.42,118.35-15.8ZM635.36,478.37s27.93,12.14,49.29,54.46c21.36,42.32,105.08,66.97,105.08,66.97l-67.21-5.1s85.14,35.38,98.91,41.2c13.77,5.82,60.07,18.87,71.19,19.33,0,0-98.31,68.13-174.47,0-76.14-68.11-82.79-176.83-82.79-176.86ZM585.73,546.8c11.6,47.52,33.46,90.32,63.14,129.49-134.47-.06-233.11,63.2-324.34,139.55,56.75-77.68,107.27-160.22,208.66-203.18l-96.76-7.14,149.3-58.72ZM1063.72,644.17c74.99.16,136.31,30.73,188.82,132.97,16.41-39.84,43.23-72.36,79.33-98.35,70.52,31.06,99.04,78.59,56.77,153.91,90.22,48.16,168.55,112.05,245.96,177.17l-162.14,110.71,6.64-56.19c-24.48,19.02-39.58,41.58-54.88,64.05-1.71-35.05,2.48-68.65,42.44-93.44l-43.12,10.44-1.66-66.49c-36.7-11.71-112.35,49.24-88.25,184.73-17.45-23.45-25.16-51.75-30.46-81.26l-16.45,4.61c1.73-74.17,27.82-137.31,114.24-173.16l-124.08-8.68,57.88-12.21c-40.64-18.75-83.59-16.25-127.23-7.41,46.13-22.5,57.87-53.44,26.3-95.03,5.32,7.73,22.73,38.79-29.54,52.65-33.24,8.81-74.19-79.93-135.84-128.78-49.52-39.24-125.06-40.01-125.06-40.01,0,0,54.91-30.36,120.3-30.22ZM664.92,735.91l-122.12,88.21,74.32-37.88-97.08,95.71,30.16-12.61c-118.84,151.89-148.25,262.97-152.9,362.73l13.78-34.74c-1.99,90.65,7.86,181.91,40.76,274.34-52.94-57.01-85.57-122.83-98.52-178.9-.51-2.23-5.46,6.8-6.09,4.62-46.67-159.8,42.92-344.37,136.95-446.56,32.45-35.27,64.02-61.7,92.72-79.03,49.67-30,88.03-35.9,88.03-35.9ZM1010.25,766.36s64.69,45.09,73.78,51.4c9.09,6.31,34.71,29.59,34.71,29.59,0,0-69.1,17.33-92.92-14.3-23.82-31.63-15.58-66.69-15.58-66.69ZM738.41,808.27c-73.29,147.33-131.32,297.52-123.37,460.03,6.95-47.62,24.4-94.02,53.14-139.12-58.54,207.48-11.72,296.97,29.95,392.21-19.36-50.63-19.96-102.13-21.04-153.61,15.81,112.4,63.12,206.64,109.28,301.54,0,0-187.59-101.88-235.92-344.55-57.75-289.97,187.95-516.49,187.95-516.49ZM878.53,855.25c-40.01,37.01-68.24,76.78-87.68,118.6,20.43-15.82,44.33-28.33,69.17-39.94l-133.08,136.64s-6.4-141.26,151.59-215.31ZM1086.52,916.56c26.28,89.54,49.93,182.02,141.53,198.63,8.07,21.9,13.74,45.34,27.24,63.76-281.22,60.78-168.78-262.39-168.78-262.39ZM1741.74,947.44c9.29,32.25,5.78,64.5-5.01,96.76l-33.66-25.64c19.62-18.72,27.47-46.16,38.67-71.11ZM835.33,1029.2c-25.06,60.66-30.25,122.3-30.2,184.2,9.53-24.4,31.46-46.18,50.81-68.51-39.76,92.01-65.57,184.6-56.52,278.61-96.17-201.29,34.1-394.23,35.9-394.3ZM1649.76,1054.41s20.87.75,48.56,15.59c27.69,14.84,67.03,39.61,58.5,102-8.53,62.39-54.54,98.09-91.89,102.8-37.35,4.7-82.06,10.61-82.06,10.61,0,0-106.89-.24-101.47-46.32,5.42-46.08,63.49-118.81,94.75-140.68,31.25-21.86,73.62-43.99,73.62-43.99ZM883.39,1106.57c21.66,60.99,57.88,103.44,112.07,123.03-18.55-13.13-31.85-29.28-45.14-45.44,56.58,37.83,113.61,72.24,174.65,76.01-294.75,108.9-241.59-153.6-241.59-153.6ZM1615.09,1131.89c-22.02,7.03-53.66,37.88-70.89,61.65-8.64,11.92-11.49,22.67-12.03,26.5-1.61,11.45,30.32,28.05,30.32,28.05,0,0,6.37-9.34,25.18-35.03,9.09-12.41,19.02-31.17,23.52-47.87,4.82-17.86,3.9-33.3,3.9-33.3ZM1714.72,1133.81c-1.52,12.44-35.23,58.18-37.88,74.36-2.65,16.19,22.45,31.39,22.45,31.39,4.02-25.21,17.73-26.39,25.09-51.67,7.35-25.27-9.66-54.08-9.66-54.08ZM1301.18,1212.87s215.41,127.29,275.64,111.06c0,0-39.08,42.35-89.59,24.94-50.51-17.42-97.9-42.25-97.9-42.25l-147.43-76.78,59.29-16.97ZM1288.36,1369.94s-61.51,59.35-71.09,83.17c0,0-176.23,73.83-251.99,273.05,0,0-38.08-216.26,130.76-309.7,0,0-79.19,88.86-86.61,125.31,0,0,59.02-90.39,145.7-124.28,0,0-22.27,21.49-25.93,28.36,0,0,67.65-58.28,159.15-75.92ZM1367.28,1401.32l-10.55,63.88c-83.47,57.47-147.01,120.66-213.24,183.07,0,0,19.8-182.7,223.79-246.96Z"/><path class="cls-7" d="M2227.16,1397.3l95.2-541.6h571.2c75.2,0,105.6,29.6,105.6,84.8,0,12-1.6,24-4,37.6l-5.6,32c-16,92-68.8,107.2-102.4,110.4,31.2,3.2,75.2,16,75.2,78.4,0,8-.8,17.6-2.4,28l-8.8,48c-14.4,79.2-53.6,122.4-144.8,122.4h-579.2ZM2864.76,1219.7c.8-7.2,1.6-13.6,1.6-19.2,0-36.8-26.4-42.4-63.2-42.4h-436.8l-28,158.4h448c44.8,0,65.6-22.4,72.8-64.8l5.6-32ZM2895.16,1000.5c1.6-10.4,3.2-20,3.2-27.2,0-30.4-16.8-36.8-52.8-36.8h-440l-26.4,146.4h432c41.6,0,72.8-15.2,80.8-63.2l3.2-19.2Z"/><path class="cls-7" d="M3174.34,1397.3c-92,0-136.8-41.6-136.8-123.2,0-16,2.4-33.6,5.6-52.8l64-365.6h97.6l-62.4,356c-2.4,15.2-4,28-4,38.4,0,48.8,25.6,58.4,72.8,58.4h400.8l79.2-452.8h95.2l-95.2,541.6h-516.8Z"/><path class="cls-7" d="M3901.54,1397.3c-73.6,0-104.8-28-104.8-91.2,0-15.2,2.4-32.8,5.6-52l39.2-222.4c20.8-117.6,82.4-176,194.4-176h516l-15.2,88.8h-496c-60,0-93.6,32-104.8,96.8l-35.2,200c-2.4,12.8-3.2,23.2-3.2,32,0,35.2,16.8,43.2,52.8,43.2h437.6l37.6-214.4h96l-52,295.2h-568Z"/><path class="cls-7" d="M5134.33,1397.3l42.4-241.6h-476.8l-42.4,241.6h-96.8l95.2-541.6h96.8l-37.6,216.8h476.8l37.6-216.8h96l-95.2,541.6h-96Z"/><path class="cls-7" d="M5479.92,1397.3c-93.6,0-138.4-40.8-138.4-122.4,0-16,2.4-34.4,5.6-53.6l33.6-189.6c20.8-117.6,82.4-176,194.4-176h371.2c93.6,0,137.6,40.8,137.6,122.4,0,16.8-1.6,34.4-4.8,53.6l-33.6,189.6c-20.8,117.6-82.4,176-194.4,176h-371.2ZM5979.92,1041.3c2.4-12.8,4-24.8,4-34.4,0-50.4-22.4-62.4-72.8-62.4h-331.2c-59.2,0-93.6,32-104.8,96.8l-29.6,170.4c-2.4,15.2-4,28-4,39.2,0,48,25.6,57.6,74.4,57.6h331.2c59.2,0,92-32.8,103.2-96.8l29.6-170.4Z"/><path class="cls-7" d="M6218.31,1397.3c-73.6,0-104.8-28-104.8-91.2,0-15.2,2.4-32.8,5.6-52l39.2-222.4c20.8-117.6,82.4-176,194.4-176h516l-15.2,88.8h-496c-60,0-93.6,32-104.8,96.8l-35.2,200c-2.4,12.8-3.2,23.2-3.2,32,0,35.2,16.8,43.2,52.8,43.2h437.6l37.6-214.4h96l-52,295.2h-568Z"/></svg>
